<?xml version="1.0" encoding="UTF-8"?>
<!-- Generated by Pixelmator Pro 4.0 -->
<svg width="512" height="512" viewBox="0 0 512 512" xmlns="http://www.w3.org/2000/svg">
    <path id="Path" fill="#e6d2c0" stroke="none" d="M 358 152 C 358 163.045715 349.045685 172 338 172 C 326.954315 172 318 163.045715 318 152 C 318 140.954285 326.954315 132 338 132 C 349.045685 132 358 140.954285 358 152 Z"/>
    <path id="path1" fill="#e6d2c0" stroke="none" d="M 200 330 C 200 341.045685 191.0457 350 180 350 C 168.9543 350 160 341.045685 160 330 C 160 318.954315 168.9543 310 180 310 C 191.0457 310 200 318.954315 200 330 Z"/>
    <path id="path2" fill="none" stroke="#e6d2c0" stroke-width="18" stroke-linecap="round" d="M 220 320 C 150 250 170 160 260 120"/>
    <path id="path3" fill="none" stroke="#e6d2c0" stroke-width="18" stroke-linecap="round" d="M 248 320 C 330 280 345 220 300 185"/>
</svg>
